<?xml version="1.0" encoding="UTF-8" standalone="no"?><!DOCTYPE svg PUBLIC "-//W3C//DTD SVG 1.1//EN" "http://www.w3.org/Graphics/SVG/1.1/DTD/svg11.dtd"><svg width="100%" height="100%" viewBox="0 0 2667 3334" version="1.1" xmlns="http://www.w3.org/2000/svg" xmlns:xlink="http://www.w3.org/1999/xlink" xml:space="preserve" xmlns:serif="http://www.serif.com/" style="fill-rule:evenodd;clip-rule:evenodd;stroke-linejoin:round;stroke-miterlimit:2;"><rect id="logo" x="0" y="0" width="2666.67" height="3333.33" style="fill-opacity:0;"/><path id="crest" d="M2533.33,766.667c0,0 -0.3,-373.859 -0.381,-475.02c-0.011,-13.8 -11.2,-24.98 -25,-24.98c-78.738,0 -321.178,0 -399.945,0c-6.63,0 -12.989,2.634 -17.677,7.322c-4.689,4.688 -7.323,11.047 -7.323,17.678c0,94.909 0,429.641 0,470.833c0,1.105 -0.439,2.165 -1.22,2.946c-0.781,0.782 -1.841,1.221 -2.946,1.221c-25.994,0 -165.64,0 -191.633,0c-1.106,0 -2.165,-0.439 -2.947,-1.221c-0.781,-0.781 -1.22,-1.841 -1.22,-2.946c0,-41.192 0,-375.924 0,-470.833c0,-6.631 -2.634,-12.99 -7.322,-17.678c-4.689,-4.688 -11.048,-7.322 -17.678,-7.322c-78.76,0 -321.165,0 -399.925,0c-6.63,0 -12.989,2.634 -17.678,7.322c-4.688,4.688 -7.322,11.047 -7.322,17.678c0,94.909 0,429.641 0,470.833c0,2.301 -1.865,4.167 -4.167,4.167c-25.96,0 -165.271,0 -191.232,0c-2.301,0 -4.166,-1.866 -4.166,-4.167c0,-41.192 0,-375.924 0,-470.833c0,-6.631 -2.634,-12.99 -7.323,-17.678c-4.688,-4.688 -11.047,-7.322 -17.677,-7.322c-78.76,0 -321.166,0 -399.925,0c-6.631,0 -12.989,2.634 -17.678,7.322c-4.688,4.688 -7.322,11.047 -7.322,17.678c0,94.909 0,429.641 0,470.833c0,1.105 -0.439,2.165 -1.221,2.946c-0.781,0.782 -1.841,1.221 -2.946,1.221c-25.994,0 -165.639,0 -191.633,0c-1.105,0 -2.165,-0.439 -2.946,-1.221c-0.782,-0.781 -1.221,-1.841 -1.221,-2.946c0,-41.192 0,-375.924 0,-470.833c0,-6.631 -2.634,-12.99 -7.322,-17.678c-4.688,-4.688 -11.047,-7.322 -17.678,-7.322c-78.766,0 -321.206,0 -399.945,0c-13.799,0 -24.988,11.18 -25,24.98c-0.081,101.161 -0.381,475.02 -0.381,475.02c0,0 0,949.266 0,1546.46c0,286.246 174.321,543.637 440.126,649.863c292.894,117.052 640.614,256.014 735.134,293.789c15.883,6.347 33.598,6.347 49.48,0c94.51,-37.77 442.16,-176.705 735.032,-293.748c265.867,-106.251 440.228,-363.702 440.228,-650.014c0,-597.202 0,-1546.35 0,-1546.35Z" style="fill:#3a4041;"/><path id="eye" d="M351.177,1793.92c-10.787,-16.571 -10.787,-37.944 -0.001,-54.515c228.875,-348.668 583.886,-572.742 982.157,-572.742c398.272,0 753.283,224.074 982.157,572.743c10.787,16.57 10.787,37.943 0,54.514c-228.874,348.669 -583.885,572.743 -982.157,572.743c-398.271,0 -753.282,-224.074 -982.156,-572.743Z" style="fill:#ebebea;"/><ellipse id="cornea" cx="1333.13" cy="1766.67" rx="474.921" ry="475" style="fill:#3a4041;"/><path id="lid" d="M312.5,1766.67l-45.833,0l0,-750l2133.33,0l0,750l-45.833,0c-232.882,-371.793 -603.613,-612.5 -1020.83,-612.5c-417.22,0 -787.951,240.707 -1020.83,612.5Z" style="fill:#3a4041;"/><path id="lid-closed" d="M312.5,1766.67l-45.833,0l0,-750l2133.33,0l0,750l-45.833,0c-232.882,371.792 -603.613,612.5 -1020.83,612.5c-417.22,0 -787.951,-240.708 -1020.83,-612.5Z" style="fill:none;"/></svg>